<mxfile host="Electron" agent="Mozilla/5.0 (Macintosh; Intel Mac OS X 10_15_7) AppleWebKit/537.36 (KHTML, like Gecko) draw.io/28.2.8 Chrome/140.0.7339.240 Electron/38.4.0 Safari/537.36" version="28.2.8">
  <diagram name="Page-1" id="fvraD0PY9CiYEc7r06sM">
    <mxGraphModel dx="197" dy="146" grid="1" gridSize="10" guides="1" tooltips="1" connect="1" arrows="1" fold="1" page="1" pageScale="1" pageWidth="1654" pageHeight="1169" math="0" shadow="0">
      <root>
        <mxCell id="0" />
        <mxCell id="1" parent="0" />
        <mxCell id="ixlNCa9GuGRnWaiSHtnA-4" value="organization&lt;div&gt;&lt;br&gt;&lt;/div&gt;" style="sketch=0;outlineConnect=0;fontColor=#232F3E;gradientColor=none;fillColor=#E7157B;strokeColor=none;dashed=0;verticalLabelPosition=bottom;verticalAlign=top;align=center;html=1;fontSize=12;fontStyle=0;aspect=fixed;pointerEvents=1;shape=mxgraph.aws4.organizations_management_account;" parent="1" vertex="1">
          <mxGeometry x="120" y="142" width="74" height="78" as="geometry" />
        </mxCell>
        <mxCell id="ixlNCa9GuGRnWaiSHtnA-14" style="edgeStyle=orthogonalEdgeStyle;rounded=0;orthogonalLoop=1;jettySize=auto;html=1;" parent="1" source="ixlNCa9GuGRnWaiSHtnA-11" target="ixlNCa9GuGRnWaiSHtnA-4" edge="1">
          <mxGeometry relative="1" as="geometry" />
        </mxCell>
        <mxCell id="ixlNCa9GuGRnWaiSHtnA-11" value="shared-services" style="points=[[0,0],[0.25,0],[0.5,0],[0.75,0],[1,0],[1,0.25],[1,0.5],[1,0.75],[1,1],[0.75,1],[0.5,1],[0.25,1],[0,1],[0,0.75],[0,0.5],[0,0.25]];outlineConnect=0;gradientColor=none;html=1;whiteSpace=wrap;fontSize=12;fontStyle=0;container=1;pointerEvents=0;collapsible=0;recursiveResize=0;shape=mxgraph.aws4.group;grIcon=mxgraph.aws4.group_account;strokeColor=#CD2264;fillColor=none;verticalAlign=top;align=left;spacingLeft=30;fontColor=#CD2264;dashed=0;" parent="1" vertex="1">
          <mxGeometry x="340" y="12" width="490" height="338" as="geometry" />
        </mxCell>
        <mxCell id="ixlNCa9GuGRnWaiSHtnA-25" value="us-east-1" style="points=[[0,0],[0.25,0],[0.5,0],[0.75,0],[1,0],[1,0.25],[1,0.5],[1,0.75],[1,1],[0.75,1],[0.5,1],[0.25,1],[0,1],[0,0.75],[0,0.5],[0,0.25]];outlineConnect=0;gradientColor=none;html=1;whiteSpace=wrap;fontSize=12;fontStyle=0;container=1;pointerEvents=0;collapsible=0;recursiveResize=0;shape=mxgraph.aws4.group;grIcon=mxgraph.aws4.group_region;strokeColor=#00A4A6;fillColor=none;verticalAlign=top;align=left;spacingLeft=30;fontColor=#147EBA;dashed=1;" parent="ixlNCa9GuGRnWaiSHtnA-11" vertex="1">
          <mxGeometry x="20" y="28" width="420" height="142" as="geometry" />
        </mxCell>
        <mxCell id="ixlNCa9GuGRnWaiSHtnA-24" value="" style="sketch=0;points=[[0,0,0],[0.25,0,0],[0.5,0,0],[0.75,0,0],[1,0,0],[0,1,0],[0.25,1,0],[0.5,1,0],[0.75,1,0],[1,1,0],[0,0.25,0],[0,0.5,0],[0,0.75,0],[1,0.25,0],[1,0.5,0],[1,0.75,0]];outlineConnect=0;fontColor=#232F3E;fillColor=#8C4FFF;strokeColor=#ffffff;dashed=0;verticalLabelPosition=bottom;verticalAlign=top;align=center;html=1;fontSize=12;fontStyle=0;aspect=fixed;shape=mxgraph.aws4.resourceIcon;resIcon=mxgraph.aws4.transit_gateway;" parent="ixlNCa9GuGRnWaiSHtnA-25" vertex="1">
          <mxGeometry x="31" y="27" width="78" height="78" as="geometry" />
        </mxCell>
        <mxCell id="ixlNCa9GuGRnWaiSHtnA-33" value="Amazon EKS" style="sketch=0;outlineConnect=0;fontColor=#232F3E;gradientColor=none;strokeColor=#ffffff;fillColor=#232F3E;dashed=0;verticalLabelPosition=middle;verticalAlign=bottom;align=center;html=1;whiteSpace=wrap;fontSize=10;fontStyle=1;spacing=3;shape=mxgraph.aws4.productIcon;prIcon=mxgraph.aws4.eks;" parent="ixlNCa9GuGRnWaiSHtnA-25" vertex="1">
          <mxGeometry x="140" y="27" width="80" height="100" as="geometry" />
        </mxCell>
        <mxCell id="ixlNCa9GuGRnWaiSHtnA-28" value="us-west-2" style="points=[[0,0],[0.25,0],[0.5,0],[0.75,0],[1,0],[1,0.25],[1,0.5],[1,0.75],[1,1],[0.75,1],[0.5,1],[0.25,1],[0,1],[0,0.75],[0,0.5],[0,0.25]];outlineConnect=0;gradientColor=none;html=1;whiteSpace=wrap;fontSize=12;fontStyle=0;container=1;pointerEvents=0;collapsible=0;recursiveResize=0;shape=mxgraph.aws4.group;grIcon=mxgraph.aws4.group_region;strokeColor=#00A4A6;fillColor=none;verticalAlign=top;align=left;spacingLeft=30;fontColor=#147EBA;dashed=1;" parent="ixlNCa9GuGRnWaiSHtnA-11" vertex="1">
          <mxGeometry x="20" y="178" width="140" height="132" as="geometry" />
        </mxCell>
        <mxCell id="ixlNCa9GuGRnWaiSHtnA-29" value="" style="sketch=0;points=[[0,0,0],[0.25,0,0],[0.5,0,0],[0.75,0,0],[1,0,0],[0,1,0],[0.25,1,0],[0.5,1,0],[0.75,1,0],[1,1,0],[0,0.25,0],[0,0.5,0],[0,0.75,0],[1,0.25,0],[1,0.5,0],[1,0.75,0]];outlineConnect=0;fontColor=#232F3E;fillColor=#8C4FFF;strokeColor=#ffffff;dashed=0;verticalLabelPosition=bottom;verticalAlign=top;align=center;html=1;fontSize=12;fontStyle=0;aspect=fixed;shape=mxgraph.aws4.resourceIcon;resIcon=mxgraph.aws4.transit_gateway;" parent="ixlNCa9GuGRnWaiSHtnA-28" vertex="1">
          <mxGeometry x="31" y="27" width="78" height="78" as="geometry" />
        </mxCell>
        <mxCell id="iKn7WDCG7RUnL5WSruzK-1" value="Amazon ECR" style="sketch=0;outlineConnect=0;fontColor=#232F3E;gradientColor=none;strokeColor=#ffffff;fillColor=#232F3E;dashed=0;verticalLabelPosition=middle;verticalAlign=bottom;align=center;html=1;whiteSpace=wrap;fontSize=10;fontStyle=1;spacing=3;shape=mxgraph.aws4.productIcon;prIcon=mxgraph.aws4.ecr;" vertex="1" parent="ixlNCa9GuGRnWaiSHtnA-11">
          <mxGeometry x="300" y="58" width="80" height="100" as="geometry" />
        </mxCell>
        <mxCell id="iKn7WDCG7RUnL5WSruzK-3" value="" style="endArrow=classic;startArrow=classic;html=1;rounded=0;" edge="1" parent="ixlNCa9GuGRnWaiSHtnA-11" source="ixlNCa9GuGRnWaiSHtnA-29" target="ixlNCa9GuGRnWaiSHtnA-24">
          <mxGeometry width="50" height="50" relative="1" as="geometry">
            <mxPoint x="175" y="198" as="sourcePoint" />
            <mxPoint x="225" y="148" as="targetPoint" />
          </mxGeometry>
        </mxCell>
        <mxCell id="ixlNCa9GuGRnWaiSHtnA-13" style="edgeStyle=orthogonalEdgeStyle;rounded=0;orthogonalLoop=1;jettySize=auto;html=1;" parent="1" source="ixlNCa9GuGRnWaiSHtnA-12" target="ixlNCa9GuGRnWaiSHtnA-4" edge="1">
          <mxGeometry relative="1" as="geometry" />
        </mxCell>
        <mxCell id="ixlNCa9GuGRnWaiSHtnA-12" value="workloads" style="points=[[0,0],[0.25,0],[0.5,0],[0.75,0],[1,0],[1,0.25],[1,0.5],[1,0.75],[1,1],[0.75,1],[0.5,1],[0.25,1],[0,1],[0,0.75],[0,0.5],[0,0.25]];outlineConnect=0;gradientColor=none;html=1;whiteSpace=wrap;fontSize=12;fontStyle=0;container=1;pointerEvents=0;collapsible=0;recursiveResize=0;shape=mxgraph.aws4.group;grIcon=mxgraph.aws4.group_account;strokeColor=#CD2264;fillColor=none;verticalAlign=top;align=left;spacingLeft=30;fontColor=#CD2264;dashed=0;" parent="1" vertex="1">
          <mxGeometry x="300" y="450" width="640" height="500" as="geometry" />
        </mxCell>
        <mxCell id="ixlNCa9GuGRnWaiSHtnA-15" value="us-east-1" style="points=[[0,0],[0.25,0],[0.5,0],[0.75,0],[1,0],[1,0.25],[1,0.5],[1,0.75],[1,1],[0.75,1],[0.5,1],[0.25,1],[0,1],[0,0.75],[0,0.5],[0,0.25]];outlineConnect=0;gradientColor=none;html=1;whiteSpace=wrap;fontSize=12;fontStyle=0;container=1;pointerEvents=0;collapsible=0;recursiveResize=0;shape=mxgraph.aws4.group;grIcon=mxgraph.aws4.group_region;strokeColor=#00A4A6;fillColor=none;verticalAlign=top;align=left;spacingLeft=30;fontColor=#147EBA;dashed=1;" parent="ixlNCa9GuGRnWaiSHtnA-12" vertex="1">
          <mxGeometry x="219" y="30" width="370" height="210" as="geometry" />
        </mxCell>
        <mxCell id="ixlNCa9GuGRnWaiSHtnA-18" value="Amazon EKS" style="sketch=0;outlineConnect=0;fontColor=#232F3E;gradientColor=none;strokeColor=#ffffff;fillColor=#232F3E;dashed=0;verticalLabelPosition=middle;verticalAlign=bottom;align=center;html=1;whiteSpace=wrap;fontSize=10;fontStyle=1;spacing=3;shape=mxgraph.aws4.productIcon;prIcon=mxgraph.aws4.eks;" parent="ixlNCa9GuGRnWaiSHtnA-15" vertex="1">
          <mxGeometry x="30" y="55" width="80" height="100" as="geometry" />
        </mxCell>
        <mxCell id="ixlNCa9GuGRnWaiSHtnA-19" value="Global DB" style="sketch=0;outlineConnect=0;fontColor=#232F3E;gradientColor=none;strokeColor=#ffffff;fillColor=#232F3E;dashed=0;verticalLabelPosition=middle;verticalAlign=bottom;align=center;html=1;whiteSpace=wrap;fontSize=10;fontStyle=1;spacing=3;shape=mxgraph.aws4.productIcon;prIcon=mxgraph.aws4.rds;" parent="ixlNCa9GuGRnWaiSHtnA-15" vertex="1">
          <mxGeometry x="145" y="55" width="80" height="100" as="geometry" />
        </mxCell>
        <mxCell id="ixlNCa9GuGRnWaiSHtnA-30" value="TGW attachment" style="sketch=0;outlineConnect=0;fontColor=#232F3E;gradientColor=none;fillColor=#8C4FFF;strokeColor=none;dashed=0;verticalLabelPosition=bottom;verticalAlign=top;align=center;html=1;fontSize=12;fontStyle=0;aspect=fixed;pointerEvents=1;shape=mxgraph.aws4.transit_gateway_attachment;" parent="ixlNCa9GuGRnWaiSHtnA-15" vertex="1">
          <mxGeometry x="270" y="55" width="78" height="78" as="geometry" />
        </mxCell>
        <mxCell id="ixlNCa9GuGRnWaiSHtnA-20" value="us-west-2" style="points=[[0,0],[0.25,0],[0.5,0],[0.75,0],[1,0],[1,0.25],[1,0.5],[1,0.75],[1,1],[0.75,1],[0.5,1],[0.25,1],[0,1],[0,0.75],[0,0.5],[0,0.25]];outlineConnect=0;gradientColor=none;html=1;whiteSpace=wrap;fontSize=12;fontStyle=0;container=1;pointerEvents=0;collapsible=0;recursiveResize=0;shape=mxgraph.aws4.group;grIcon=mxgraph.aws4.group_region;strokeColor=#00A4A6;fillColor=none;verticalAlign=top;align=left;spacingLeft=30;fontColor=#147EBA;dashed=1;" parent="ixlNCa9GuGRnWaiSHtnA-12" vertex="1">
          <mxGeometry x="219" y="260" width="370" height="210" as="geometry" />
        </mxCell>
        <mxCell id="ixlNCa9GuGRnWaiSHtnA-21" value="Amazon EKS" style="sketch=0;outlineConnect=0;fontColor=#232F3E;gradientColor=none;strokeColor=#ffffff;fillColor=#232F3E;dashed=0;verticalLabelPosition=middle;verticalAlign=bottom;align=center;html=1;whiteSpace=wrap;fontSize=10;fontStyle=1;spacing=3;shape=mxgraph.aws4.productIcon;prIcon=mxgraph.aws4.eks;" parent="ixlNCa9GuGRnWaiSHtnA-20" vertex="1">
          <mxGeometry x="30" y="50" width="80" height="100" as="geometry" />
        </mxCell>
        <mxCell id="ixlNCa9GuGRnWaiSHtnA-22" value="Global DB" style="sketch=0;outlineConnect=0;fontColor=#232F3E;gradientColor=none;strokeColor=#ffffff;fillColor=#232F3E;dashed=0;verticalLabelPosition=middle;verticalAlign=bottom;align=center;html=1;whiteSpace=wrap;fontSize=10;fontStyle=1;spacing=3;shape=mxgraph.aws4.productIcon;prIcon=mxgraph.aws4.rds;" parent="ixlNCa9GuGRnWaiSHtnA-20" vertex="1">
          <mxGeometry x="150" y="50" width="80" height="100" as="geometry" />
        </mxCell>
        <mxCell id="ixlNCa9GuGRnWaiSHtnA-31" value="TGW attachment" style="sketch=0;outlineConnect=0;fontColor=#232F3E;gradientColor=none;fillColor=#8C4FFF;strokeColor=none;dashed=0;verticalLabelPosition=bottom;verticalAlign=top;align=center;html=1;fontSize=12;fontStyle=0;aspect=fixed;pointerEvents=1;shape=mxgraph.aws4.transit_gateway_attachment;" parent="ixlNCa9GuGRnWaiSHtnA-20" vertex="1">
          <mxGeometry x="270" y="50" width="78" height="78" as="geometry" />
        </mxCell>
        <mxCell id="ixlNCa9GuGRnWaiSHtnA-37" style="edgeStyle=orthogonalEdgeStyle;rounded=0;orthogonalLoop=1;jettySize=auto;html=1;" parent="ixlNCa9GuGRnWaiSHtnA-12" source="ixlNCa9GuGRnWaiSHtnA-35" target="ixlNCa9GuGRnWaiSHtnA-18" edge="1">
          <mxGeometry relative="1" as="geometry" />
        </mxCell>
        <mxCell id="ixlNCa9GuGRnWaiSHtnA-35" value="Application Load Balancer" style="sketch=0;outlineConnect=0;fontColor=#232F3E;gradientColor=none;strokeColor=#ffffff;fillColor=#232F3E;dashed=0;verticalLabelPosition=middle;verticalAlign=bottom;align=center;html=1;whiteSpace=wrap;fontSize=10;fontStyle=1;spacing=3;shape=mxgraph.aws4.productIcon;prIcon=mxgraph.aws4.application_load_balancer;" parent="ixlNCa9GuGRnWaiSHtnA-12" vertex="1">
          <mxGeometry x="120" y="80" width="80" height="110" as="geometry" />
        </mxCell>
        <mxCell id="ixlNCa9GuGRnWaiSHtnA-38" style="edgeStyle=orthogonalEdgeStyle;rounded=0;orthogonalLoop=1;jettySize=auto;html=1;" parent="ixlNCa9GuGRnWaiSHtnA-12" source="ixlNCa9GuGRnWaiSHtnA-36" target="ixlNCa9GuGRnWaiSHtnA-21" edge="1">
          <mxGeometry relative="1" as="geometry" />
        </mxCell>
        <mxCell id="ixlNCa9GuGRnWaiSHtnA-36" value="Application Load Balancer" style="sketch=0;outlineConnect=0;fontColor=#232F3E;gradientColor=none;strokeColor=#ffffff;fillColor=#232F3E;dashed=0;verticalLabelPosition=middle;verticalAlign=bottom;align=center;html=1;whiteSpace=wrap;fontSize=10;fontStyle=1;spacing=3;shape=mxgraph.aws4.productIcon;prIcon=mxgraph.aws4.application_load_balancer;" parent="ixlNCa9GuGRnWaiSHtnA-12" vertex="1">
          <mxGeometry x="120" y="305" width="80" height="110" as="geometry" />
        </mxCell>
        <mxCell id="ixlNCa9GuGRnWaiSHtnA-41" style="edgeStyle=orthogonalEdgeStyle;rounded=0;orthogonalLoop=1;jettySize=auto;html=1;" parent="ixlNCa9GuGRnWaiSHtnA-12" source="ixlNCa9GuGRnWaiSHtnA-39" target="ixlNCa9GuGRnWaiSHtnA-36" edge="1">
          <mxGeometry relative="1" as="geometry">
            <Array as="points">
              <mxPoint x="40" y="360" />
            </Array>
          </mxGeometry>
        </mxCell>
        <mxCell id="ixlNCa9GuGRnWaiSHtnA-42" style="edgeStyle=orthogonalEdgeStyle;rounded=0;orthogonalLoop=1;jettySize=auto;html=1;" parent="ixlNCa9GuGRnWaiSHtnA-12" source="ixlNCa9GuGRnWaiSHtnA-39" target="ixlNCa9GuGRnWaiSHtnA-35" edge="1">
          <mxGeometry relative="1" as="geometry">
            <Array as="points">
              <mxPoint x="50" y="120" />
            </Array>
          </mxGeometry>
        </mxCell>
        <mxCell id="ixlNCa9GuGRnWaiSHtnA-39" value="Amazon Route 53" style="sketch=0;outlineConnect=0;fontColor=#232F3E;gradientColor=none;strokeColor=#ffffff;fillColor=#232F3E;dashed=0;verticalLabelPosition=middle;verticalAlign=bottom;align=center;html=1;whiteSpace=wrap;fontSize=10;fontStyle=1;spacing=3;shape=mxgraph.aws4.productIcon;prIcon=mxgraph.aws4.route_53;" parent="ixlNCa9GuGRnWaiSHtnA-12" vertex="1">
          <mxGeometry x="10" y="195" width="80" height="110" as="geometry" />
        </mxCell>
        <mxCell id="iKn7WDCG7RUnL5WSruzK-6" value="" style="endArrow=classic;html=1;rounded=0;entryX=0.5;entryY=1;entryDx=0;entryDy=0;entryPerimeter=0;" edge="1" parent="1" source="ixlNCa9GuGRnWaiSHtnA-31" target="ixlNCa9GuGRnWaiSHtnA-29">
          <mxGeometry width="50" height="50" relative="1" as="geometry">
            <mxPoint x="640" y="460" as="sourcePoint" />
            <mxPoint x="690" y="410" as="targetPoint" />
            <Array as="points">
              <mxPoint x="1000" y="800" />
              <mxPoint x="1000" y="400" />
              <mxPoint x="430" y="400" />
            </Array>
          </mxGeometry>
        </mxCell>
        <mxCell id="iKn7WDCG7RUnL5WSruzK-8" value="" style="endArrow=classic;html=1;rounded=0;entryX=0;entryY=0.5;entryDx=0;entryDy=0;entryPerimeter=0;" edge="1" parent="1" source="ixlNCa9GuGRnWaiSHtnA-30" target="ixlNCa9GuGRnWaiSHtnA-24">
          <mxGeometry width="50" height="50" relative="1" as="geometry">
            <mxPoint x="410" y="290" as="sourcePoint" />
            <mxPoint x="460" y="240" as="targetPoint" />
            <Array as="points">
              <mxPoint x="980" y="574" />
              <mxPoint x="980" y="420" />
              <mxPoint x="270" y="420" />
              <mxPoint x="270" y="106" />
            </Array>
          </mxGeometry>
        </mxCell>
      </root>
    </mxGraphModel>
  </diagram>
</mxfile>
